<mxfile host="app.diagrams.net" modified="2020-12-07T12:34:13.328Z" agent="5.0 (Windows NT 10.0; Win64; x64) AppleWebKit/537.36 (KHTML, like Gecko) Chrome/86.0.4240.198 Safari/537.36" etag="tZFlVKgFodIyM5LFeBPk" version="13.11.0" type="github">
  <diagram id="-t_HF-DD3XA08ipkhw0p" name="Page-1">
    <mxGraphModel dx="2282" dy="1354" grid="1" gridSize="10" guides="1" tooltips="1" connect="1" arrows="1" fold="1" page="1" pageScale="1" pageWidth="827" pageHeight="1169" math="0" shadow="0">
      <root>
        <mxCell id="0" />
        <mxCell id="1" parent="0" />
        <mxCell id="I46bo-mzMdyUpELrg9EA-2" value="&lt;b style=&quot;background-color: rgb(248 , 206 , 204)&quot;&gt;20190912 좌민주 04분반&lt;/b&gt;" style="text;html=1;align=center;verticalAlign=middle;resizable=0;points=[];autosize=1;fontSize=20;" vertex="1" parent="1">
          <mxGeometry x="87.5" y="180" width="240" height="30" as="geometry" />
        </mxCell>
        <mxCell id="I46bo-mzMdyUpELrg9EA-3" value="CUSTOMER" style="whiteSpace=wrap;html=1;align=center;" vertex="1" parent="1">
          <mxGeometry x="1733" y="929" width="100" height="40" as="geometry" />
        </mxCell>
        <mxCell id="I46bo-mzMdyUpELrg9EA-4" value="UserID" style="ellipse;whiteSpace=wrap;html=1;align=center;fontStyle=4" vertex="1" parent="1">
          <mxGeometry x="1603" y="909" width="100" height="40" as="geometry" />
        </mxCell>
        <mxCell id="I46bo-mzMdyUpELrg9EA-5" value="UserName" style="ellipse;whiteSpace=wrap;html=1;align=center;fontStyle=0" vertex="1" parent="1">
          <mxGeometry x="1610" y="959" width="100" height="40" as="geometry" />
        </mxCell>
        <mxCell id="I46bo-mzMdyUpELrg9EA-6" value="" style="group" vertex="1" connectable="0" parent="1">
          <mxGeometry x="1189" y="491.5" width="391" height="788.5" as="geometry" />
        </mxCell>
        <mxCell id="I46bo-mzMdyUpELrg9EA-7" value="DEVICE" style="whiteSpace=wrap;html=1;align=center;" vertex="1" parent="I46bo-mzMdyUpELrg9EA-6">
          <mxGeometry x="110" y="57.5" width="100" height="40" as="geometry" />
        </mxCell>
        <mxCell id="I46bo-mzMdyUpELrg9EA-8" value="&lt;u&gt;deviceID&lt;/u&gt;" style="ellipse;whiteSpace=wrap;html=1;align=center;" vertex="1" parent="I46bo-mzMdyUpELrg9EA-6">
          <mxGeometry x="225" width="100" height="40" as="geometry" />
        </mxCell>
        <mxCell id="I46bo-mzMdyUpELrg9EA-9" value="MACaddress" style="ellipse;whiteSpace=wrap;html=1;align=center;" vertex="1" parent="I46bo-mzMdyUpELrg9EA-6">
          <mxGeometry x="225" y="115" width="100" height="40" as="geometry" />
        </mxCell>
        <mxCell id="I46bo-mzMdyUpELrg9EA-10" value="baseRSSI" style="ellipse;whiteSpace=wrap;html=1;align=center;" vertex="1" parent="I46bo-mzMdyUpELrg9EA-6">
          <mxGeometry x="60" width="100" height="40" as="geometry" />
        </mxCell>
        <mxCell id="I46bo-mzMdyUpELrg9EA-11" value="&#xa;&#xa;&lt;span style=&quot;color: rgb(0, 0, 0); font-family: helvetica; font-size: 12px; font-style: normal; font-weight: 400; letter-spacing: normal; text-align: center; text-indent: 0px; text-transform: none; word-spacing: 0px; background-color: rgb(248, 249, 250); display: inline; float: none;&quot;&gt;1..1&lt;/span&gt;&#xa;&#xa;" style="text;html=1;strokeColor=none;fillColor=none;align=center;verticalAlign=middle;whiteSpace=wrap;rounded=0;spacing=1;" vertex="1" parent="I46bo-mzMdyUpELrg9EA-6">
          <mxGeometry x="70" y="77.5" width="40" height="20" as="geometry" />
        </mxCell>
        <mxCell id="I46bo-mzMdyUpELrg9EA-12" value="" style="endArrow=none;html=1;rounded=0;fontColor=none;" edge="1" parent="I46bo-mzMdyUpELrg9EA-6" source="I46bo-mzMdyUpELrg9EA-8" target="I46bo-mzMdyUpELrg9EA-7">
          <mxGeometry relative="1" as="geometry">
            <mxPoint x="10" y="35" as="sourcePoint" />
            <mxPoint x="170" y="35" as="targetPoint" />
          </mxGeometry>
        </mxCell>
        <mxCell id="I46bo-mzMdyUpELrg9EA-13" value="" style="endArrow=none;html=1;rounded=0;fontColor=none;" edge="1" parent="I46bo-mzMdyUpELrg9EA-6" source="I46bo-mzMdyUpELrg9EA-7" target="I46bo-mzMdyUpELrg9EA-9">
          <mxGeometry relative="1" as="geometry">
            <mxPoint x="10" y="35" as="sourcePoint" />
            <mxPoint x="170" y="35" as="targetPoint" />
          </mxGeometry>
        </mxCell>
        <mxCell id="I46bo-mzMdyUpELrg9EA-14" value="" style="resizable=0;html=1;align=right;verticalAlign=bottom;" connectable="0" vertex="1" parent="I46bo-mzMdyUpELrg9EA-13">
          <mxGeometry x="1" relative="1" as="geometry" />
        </mxCell>
        <mxCell id="I46bo-mzMdyUpELrg9EA-15" value="" style="endArrow=none;html=1;rounded=0;fontColor=none;" edge="1" parent="I46bo-mzMdyUpELrg9EA-6" source="I46bo-mzMdyUpELrg9EA-7" target="I46bo-mzMdyUpELrg9EA-10">
          <mxGeometry relative="1" as="geometry">
            <mxPoint x="10" y="35" as="sourcePoint" />
            <mxPoint x="170" y="35" as="targetPoint" />
          </mxGeometry>
        </mxCell>
        <mxCell id="I46bo-mzMdyUpELrg9EA-16" value="" style="endArrow=none;html=1;rounded=0;fontColor=none;" edge="1" parent="I46bo-mzMdyUpELrg9EA-6" source="I46bo-mzMdyUpELrg9EA-7" target="I46bo-mzMdyUpELrg9EA-18">
          <mxGeometry relative="1" as="geometry">
            <mxPoint x="50" y="1" as="sourcePoint" />
            <mxPoint x="92.02338298506015" y="133.04463043256214" as="targetPoint" />
          </mxGeometry>
        </mxCell>
        <mxCell id="I46bo-mzMdyUpELrg9EA-17" value="&#xa;&#xa;&lt;span style=&quot;color: rgb(0, 0, 0); font-family: helvetica; font-size: 12px; font-style: normal; font-weight: 400; letter-spacing: normal; text-align: center; text-indent: 0px; text-transform: none; word-spacing: 0px; background-color: rgb(248, 249, 250); display: inline; float: none;&quot;&gt;1..1&lt;/span&gt;&#xa;&#xa;" style="text;html=1;strokeColor=none;fillColor=none;align=center;verticalAlign=middle;whiteSpace=wrap;rounded=0;spacing=1;" vertex="1" parent="I46bo-mzMdyUpELrg9EA-6">
          <mxGeometry x="120" y="104.25" width="40" height="20" as="geometry" />
        </mxCell>
        <mxCell id="I46bo-mzMdyUpELrg9EA-18" value="&lt;span style=&quot;border-bottom: 1px dotted&quot;&gt;measureID&lt;br&gt;&lt;/span&gt;" style="ellipse;whiteSpace=wrap;html=1;align=center;labelBackgroundColor=none;fillColor=none;fontColor=none;" vertex="1" parent="I46bo-mzMdyUpELrg9EA-6">
          <mxGeometry x="10" y="117.5" width="100" height="40" as="geometry" />
        </mxCell>
        <mxCell id="I46bo-mzMdyUpELrg9EA-19" value="Entity" style="whiteSpace=wrap;html=1;align=center;labelBackgroundColor=none;noLabel=1;fontColor=none;fillColor=none;" vertex="1" parent="I46bo-mzMdyUpELrg9EA-6">
          <mxGeometry x="-139" y="-11.5" width="530" height="800" as="geometry" />
        </mxCell>
        <mxCell id="I46bo-mzMdyUpELrg9EA-20" value="&lt;span style=&quot;color: rgb(0 , 0 , 0) ; font-family: &amp;#34;helvetica&amp;#34; ; font-size: 12px ; font-style: normal ; font-weight: 400 ; letter-spacing: normal ; text-align: center ; text-indent: 0px ; text-transform: none ; word-spacing: 0px ; background-color: rgb(248 , 249 , 250) ; display: inline ; float: none&quot;&gt;1..N&lt;/span&gt;" style="text;html=1;strokeColor=none;fillColor=none;align=center;verticalAlign=middle;whiteSpace=wrap;rounded=0;spacing=1;" vertex="1" parent="I46bo-mzMdyUpELrg9EA-6">
          <mxGeometry x="163" y="127.5" width="40" height="20" as="geometry" />
        </mxCell>
        <mxCell id="I46bo-mzMdyUpELrg9EA-21" value="&lt;span style=&quot;color: rgb(0 , 0 , 0) ; font-family: &amp;#34;helvetica&amp;#34; ; font-size: 12px ; font-style: normal ; font-weight: 400 ; letter-spacing: normal ; text-align: center ; text-indent: 0px ; text-transform: none ; word-spacing: 0px ; background-color: rgb(248 , 249 , 250) ; display: inline ; float: none&quot;&gt;0..N&lt;/span&gt;" style="text;html=1;strokeColor=none;fillColor=none;align=center;verticalAlign=middle;whiteSpace=wrap;rounded=0;spacing=1;" vertex="1" parent="I46bo-mzMdyUpELrg9EA-6">
          <mxGeometry x="-19" y="364.5" width="40" height="20" as="geometry" />
        </mxCell>
        <mxCell id="I46bo-mzMdyUpELrg9EA-22" value="&lt;span style=&quot;color: rgb(0 , 0 , 0) ; font-family: &amp;#34;helvetica&amp;#34; ; font-size: 12px ; font-style: normal ; font-weight: 400 ; letter-spacing: normal ; text-align: center ; text-indent: 0px ; text-transform: none ; word-spacing: 0px ; background-color: rgb(248 , 249 , 250) ; display: inline ; float: none&quot;&gt;0..N&lt;/span&gt;" style="text;html=1;strokeColor=none;fillColor=none;align=center;verticalAlign=middle;whiteSpace=wrap;rounded=0;spacing=1;" vertex="1" parent="I46bo-mzMdyUpELrg9EA-6">
          <mxGeometry x="30" y="632.5" width="40" height="20" as="geometry" />
        </mxCell>
        <mxCell id="I46bo-mzMdyUpELrg9EA-23" value="" style="group" vertex="1" connectable="0" parent="1">
          <mxGeometry x="888.5" y="397.75" width="154" height="244" as="geometry" />
        </mxCell>
        <mxCell id="I46bo-mzMdyUpELrg9EA-24" value="POSITION" style="whiteSpace=wrap;html=1;align=center;" vertex="1" parent="I46bo-mzMdyUpELrg9EA-23">
          <mxGeometry x="12" y="125" width="100" height="40" as="geometry" />
        </mxCell>
        <mxCell id="I46bo-mzMdyUpELrg9EA-25" value="Cord" style="ellipse;whiteSpace=wrap;html=1;align=center;" vertex="1" parent="I46bo-mzMdyUpELrg9EA-23">
          <mxGeometry x="12" y="50" width="100" height="40" as="geometry" />
        </mxCell>
        <mxCell id="I46bo-mzMdyUpELrg9EA-26" value="x" style="ellipse;whiteSpace=wrap;html=1;align=center;" vertex="1" parent="I46bo-mzMdyUpELrg9EA-23">
          <mxGeometry width="40" height="40" as="geometry" />
        </mxCell>
        <mxCell id="I46bo-mzMdyUpELrg9EA-27" value="y" style="ellipse;whiteSpace=wrap;html=1;align=center;" vertex="1" parent="I46bo-mzMdyUpELrg9EA-23">
          <mxGeometry x="49" width="40" height="40" as="geometry" />
        </mxCell>
        <mxCell id="I46bo-mzMdyUpELrg9EA-28" value="z" style="ellipse;whiteSpace=wrap;html=1;align=center;" vertex="1" parent="I46bo-mzMdyUpELrg9EA-23">
          <mxGeometry x="98" width="40" height="40" as="geometry" />
        </mxCell>
        <mxCell id="I46bo-mzMdyUpELrg9EA-29" value="&lt;u&gt;positionID&lt;/u&gt;" style="ellipse;whiteSpace=wrap;html=1;align=center;" vertex="1" parent="I46bo-mzMdyUpELrg9EA-23">
          <mxGeometry x="-30" y="190" width="100" height="40" as="geometry" />
        </mxCell>
        <mxCell id="I46bo-mzMdyUpELrg9EA-30" value="1..1" style="text;html=1;strokeColor=none;fillColor=none;align=center;verticalAlign=middle;whiteSpace=wrap;rounded=0;spacing=1;" vertex="1" parent="I46bo-mzMdyUpELrg9EA-23">
          <mxGeometry x="-26" y="125" width="40" height="20" as="geometry" />
        </mxCell>
        <mxCell id="I46bo-mzMdyUpELrg9EA-31" value="" style="endArrow=none;html=1;rounded=0;fontColor=none;" edge="1" parent="I46bo-mzMdyUpELrg9EA-23" source="I46bo-mzMdyUpELrg9EA-26" target="I46bo-mzMdyUpELrg9EA-25">
          <mxGeometry relative="1" as="geometry">
            <mxPoint x="-237" y="80" as="sourcePoint" />
            <mxPoint x="-77" y="80" as="targetPoint" />
          </mxGeometry>
        </mxCell>
        <mxCell id="I46bo-mzMdyUpELrg9EA-32" value="" style="endArrow=none;html=1;rounded=0;fontColor=none;" edge="1" parent="I46bo-mzMdyUpELrg9EA-23" source="I46bo-mzMdyUpELrg9EA-27" target="I46bo-mzMdyUpELrg9EA-25">
          <mxGeometry relative="1" as="geometry">
            <mxPoint x="42.852245239531385" y="45.32383086251821" as="sourcePoint" />
            <mxPoint x="56.07490649511283" y="61.04155535132486" as="targetPoint" />
          </mxGeometry>
        </mxCell>
        <mxCell id="I46bo-mzMdyUpELrg9EA-33" value="" style="endArrow=none;html=1;rounded=0;fontColor=none;exitX=1;exitY=1;exitDx=0;exitDy=0;" edge="1" parent="I46bo-mzMdyUpELrg9EA-23" source="I46bo-mzMdyUpELrg9EA-28" target="I46bo-mzMdyUpELrg9EA-25">
          <mxGeometry relative="1" as="geometry">
            <mxPoint x="76.35672559817976" y="49.82455801365177" as="sourcePoint" />
            <mxPoint x="74.79561989921945" y="60.03128643414675" as="targetPoint" />
          </mxGeometry>
        </mxCell>
        <mxCell id="I46bo-mzMdyUpELrg9EA-34" value="" style="endArrow=none;html=1;rounded=0;fontColor=none;" edge="1" parent="I46bo-mzMdyUpELrg9EA-23" source="I46bo-mzMdyUpELrg9EA-25" target="I46bo-mzMdyUpELrg9EA-24">
          <mxGeometry relative="1" as="geometry">
            <mxPoint x="-237" y="80" as="sourcePoint" />
            <mxPoint x="-77" y="80" as="targetPoint" />
          </mxGeometry>
        </mxCell>
        <mxCell id="I46bo-mzMdyUpELrg9EA-35" value="" style="endArrow=none;html=1;rounded=0;fontColor=none;" edge="1" parent="I46bo-mzMdyUpELrg9EA-23" source="I46bo-mzMdyUpELrg9EA-29" target="I46bo-mzMdyUpELrg9EA-24">
          <mxGeometry relative="1" as="geometry">
            <mxPoint x="-147" y="80" as="sourcePoint" />
            <mxPoint x="13" y="80" as="targetPoint" />
          </mxGeometry>
        </mxCell>
        <mxCell id="I46bo-mzMdyUpELrg9EA-36" value="1..M" style="text;html=1;strokeColor=none;fillColor=none;align=center;verticalAlign=middle;whiteSpace=wrap;rounded=0;spacing=1;" vertex="1" parent="I46bo-mzMdyUpELrg9EA-23">
          <mxGeometry x="114" y="125" width="40" height="20" as="geometry" />
        </mxCell>
        <mxCell id="I46bo-mzMdyUpELrg9EA-37" value="" style="group" vertex="1" connectable="0" parent="1">
          <mxGeometry x="400" y="400" width="488.5" height="401" as="geometry" />
        </mxCell>
        <mxCell id="I46bo-mzMdyUpELrg9EA-38" value="MEASUREMENT" style="whiteSpace=wrap;html=1;align=center;" vertex="1" parent="I46bo-mzMdyUpELrg9EA-37">
          <mxGeometry x="249.5" y="150" width="100" height="40" as="geometry" />
        </mxCell>
        <mxCell id="I46bo-mzMdyUpELrg9EA-39" value="WiFi RSSI" style="ellipse;shape=doubleEllipse;margin=3;whiteSpace=wrap;html=1;align=center;" vertex="1" parent="I46bo-mzMdyUpELrg9EA-37">
          <mxGeometry x="210" y="65" width="100" height="40" as="geometry" />
        </mxCell>
        <mxCell id="I46bo-mzMdyUpELrg9EA-40" value="timestamp" style="ellipse;whiteSpace=wrap;html=1;align=center;" vertex="1" parent="I46bo-mzMdyUpELrg9EA-37">
          <mxGeometry x="340" y="60" width="100" height="40" as="geometry" />
        </mxCell>
        <mxCell id="I46bo-mzMdyUpELrg9EA-41" value="&lt;u&gt;measureID&lt;/u&gt;" style="ellipse;whiteSpace=wrap;html=1;align=center;" vertex="1" parent="I46bo-mzMdyUpELrg9EA-37">
          <mxGeometry x="360" y="220" width="100" height="40" as="geometry" />
        </mxCell>
        <mxCell id="I46bo-mzMdyUpELrg9EA-42" value="SSID" style="ellipse;whiteSpace=wrap;html=1;align=center;" vertex="1" parent="I46bo-mzMdyUpELrg9EA-37">
          <mxGeometry x="268.5" y="10" width="100" height="40" as="geometry" />
        </mxCell>
        <mxCell id="I46bo-mzMdyUpELrg9EA-43" value="value" style="ellipse;whiteSpace=wrap;html=1;align=center;" vertex="1" parent="I46bo-mzMdyUpELrg9EA-37">
          <mxGeometry x="90" y="65" width="100" height="40" as="geometry" />
        </mxCell>
        <mxCell id="I46bo-mzMdyUpELrg9EA-44" value="BSSID" style="ellipse;whiteSpace=wrap;html=1;align=center;" vertex="1" parent="I46bo-mzMdyUpELrg9EA-37">
          <mxGeometry x="149.5" y="10" width="100" height="40" as="geometry" />
        </mxCell>
        <mxCell id="I46bo-mzMdyUpELrg9EA-45" value="cellular" style="ellipse;whiteSpace=wrap;html=1;align=center;" vertex="1" parent="I46bo-mzMdyUpELrg9EA-37">
          <mxGeometry x="240" y="240" width="100" height="40" as="geometry" />
        </mxCell>
        <mxCell id="I46bo-mzMdyUpELrg9EA-46" value="1..1" style="text;html=1;strokeColor=none;fillColor=none;align=center;verticalAlign=middle;whiteSpace=wrap;rounded=0;spacing=1;" vertex="1" parent="I46bo-mzMdyUpELrg9EA-37">
          <mxGeometry x="203.75" y="150" width="40" height="20" as="geometry" />
        </mxCell>
        <mxCell id="I46bo-mzMdyUpELrg9EA-47" value="has" style="shape=rhombus;perimeter=rhombusPerimeter;whiteSpace=wrap;html=1;align=center;" vertex="1" parent="I46bo-mzMdyUpELrg9EA-37">
          <mxGeometry x="47.5" y="147" width="120" height="60" as="geometry" />
        </mxCell>
        <mxCell id="I46bo-mzMdyUpELrg9EA-48" value="" style="endArrow=none;html=1;rounded=0;" edge="1" parent="I46bo-mzMdyUpELrg9EA-37" source="I46bo-mzMdyUpELrg9EA-47" target="I46bo-mzMdyUpELrg9EA-38">
          <mxGeometry relative="1" as="geometry">
            <mxPoint x="130" y="350" as="sourcePoint" />
            <mxPoint x="290" y="350" as="targetPoint" />
          </mxGeometry>
        </mxCell>
        <mxCell id="I46bo-mzMdyUpELrg9EA-49" value="&lt;span style=&quot;border-bottom: 1px dotted&quot;&gt;gpsID&lt;/span&gt;" style="ellipse;whiteSpace=wrap;html=1;align=center;" vertex="1" parent="I46bo-mzMdyUpELrg9EA-37">
          <mxGeometry x="164.25" y="200" width="66.5" height="40" as="geometry" />
        </mxCell>
        <mxCell id="I46bo-mzMdyUpELrg9EA-50" value="" style="endArrow=none;html=1;rounded=0;" edge="1" parent="I46bo-mzMdyUpELrg9EA-37" source="I46bo-mzMdyUpELrg9EA-49" target="I46bo-mzMdyUpELrg9EA-38">
          <mxGeometry relative="1" as="geometry">
            <mxPoint x="70" y="120" as="sourcePoint" />
            <mxPoint x="230" y="120" as="targetPoint" />
          </mxGeometry>
        </mxCell>
        <mxCell id="I46bo-mzMdyUpELrg9EA-51" value="" style="endArrow=none;html=1;rounded=0;fontColor=none;" edge="1" parent="I46bo-mzMdyUpELrg9EA-37" source="I46bo-mzMdyUpELrg9EA-38" target="I46bo-mzMdyUpELrg9EA-39">
          <mxGeometry relative="1" as="geometry">
            <mxPoint x="220" y="180" as="sourcePoint" />
            <mxPoint x="380" y="180" as="targetPoint" />
          </mxGeometry>
        </mxCell>
        <mxCell id="I46bo-mzMdyUpELrg9EA-52" value="" style="endArrow=none;html=1;rounded=0;fontColor=none;" edge="1" parent="I46bo-mzMdyUpELrg9EA-37" source="I46bo-mzMdyUpELrg9EA-43" target="I46bo-mzMdyUpELrg9EA-39">
          <mxGeometry relative="1" as="geometry">
            <mxPoint x="220" y="180" as="sourcePoint" />
            <mxPoint x="380" y="180" as="targetPoint" />
          </mxGeometry>
        </mxCell>
        <mxCell id="I46bo-mzMdyUpELrg9EA-53" value="" style="endArrow=none;html=1;rounded=0;fontColor=none;" edge="1" parent="I46bo-mzMdyUpELrg9EA-37" source="I46bo-mzMdyUpELrg9EA-44" target="I46bo-mzMdyUpELrg9EA-39">
          <mxGeometry relative="1" as="geometry">
            <mxPoint x="220" y="180" as="sourcePoint" />
            <mxPoint x="380" y="180" as="targetPoint" />
          </mxGeometry>
        </mxCell>
        <mxCell id="I46bo-mzMdyUpELrg9EA-54" value="" style="endArrow=none;html=1;rounded=0;fontColor=none;" edge="1" parent="I46bo-mzMdyUpELrg9EA-37" source="I46bo-mzMdyUpELrg9EA-42" target="I46bo-mzMdyUpELrg9EA-39">
          <mxGeometry relative="1" as="geometry">
            <mxPoint x="220" y="180" as="sourcePoint" />
            <mxPoint x="380" y="180" as="targetPoint" />
          </mxGeometry>
        </mxCell>
        <mxCell id="I46bo-mzMdyUpELrg9EA-55" value="" style="endArrow=none;html=1;rounded=0;fontColor=none;" edge="1" parent="I46bo-mzMdyUpELrg9EA-37" source="I46bo-mzMdyUpELrg9EA-38" target="I46bo-mzMdyUpELrg9EA-40">
          <mxGeometry relative="1" as="geometry">
            <mxPoint x="220" y="180" as="sourcePoint" />
            <mxPoint x="380" y="180" as="targetPoint" />
          </mxGeometry>
        </mxCell>
        <mxCell id="I46bo-mzMdyUpELrg9EA-56" value="" style="endArrow=none;html=1;rounded=0;fontColor=none;" edge="1" parent="I46bo-mzMdyUpELrg9EA-37" source="I46bo-mzMdyUpELrg9EA-38" target="I46bo-mzMdyUpELrg9EA-45">
          <mxGeometry relative="1" as="geometry">
            <mxPoint x="220" y="180" as="sourcePoint" />
            <mxPoint x="380" y="180" as="targetPoint" />
          </mxGeometry>
        </mxCell>
        <mxCell id="I46bo-mzMdyUpELrg9EA-57" value="" style="endArrow=none;html=1;rounded=0;fontColor=none;" edge="1" parent="I46bo-mzMdyUpELrg9EA-37" source="I46bo-mzMdyUpELrg9EA-38" target="I46bo-mzMdyUpELrg9EA-41">
          <mxGeometry relative="1" as="geometry">
            <mxPoint x="300" y="180" as="sourcePoint" />
            <mxPoint x="380" y="180" as="targetPoint" />
          </mxGeometry>
        </mxCell>
        <mxCell id="I46bo-mzMdyUpELrg9EA-58" value="1..1" style="text;html=1;strokeColor=none;fillColor=none;align=center;verticalAlign=middle;whiteSpace=wrap;rounded=0;spacing=1;" vertex="1" parent="I46bo-mzMdyUpELrg9EA-37">
          <mxGeometry x="340" y="140" width="40" height="20" as="geometry" />
        </mxCell>
        <mxCell id="I46bo-mzMdyUpELrg9EA-59" value="calculate" style="shape=rhombus;perimeter=rhombusPerimeter;whiteSpace=wrap;html=1;align=center;" vertex="1" parent="I46bo-mzMdyUpELrg9EA-37">
          <mxGeometry x="380" y="125" width="91.5" height="60" as="geometry" />
        </mxCell>
        <mxCell id="I46bo-mzMdyUpELrg9EA-60" value="" style="endArrow=none;html=1;rounded=0;" edge="1" parent="I46bo-mzMdyUpELrg9EA-37" source="I46bo-mzMdyUpELrg9EA-38" target="I46bo-mzMdyUpELrg9EA-59">
          <mxGeometry relative="1" as="geometry">
            <mxPoint x="349.5" y="164.98997995991976" as="sourcePoint" />
            <mxPoint x="499" y="150.01002004008024" as="targetPoint" />
          </mxGeometry>
        </mxCell>
        <mxCell id="I46bo-mzMdyUpELrg9EA-61" value="&lt;u&gt;productID&lt;/u&gt;" style="ellipse;whiteSpace=wrap;html=1;align=center;" vertex="1" parent="I46bo-mzMdyUpELrg9EA-37">
          <mxGeometry x="180" y="340" width="100" height="40" as="geometry" />
        </mxCell>
        <mxCell id="I46bo-mzMdyUpELrg9EA-62" value="price" style="ellipse;whiteSpace=wrap;html=1;align=center;" vertex="1" parent="I46bo-mzMdyUpELrg9EA-37">
          <mxGeometry x="74" y="361" width="100" height="40" as="geometry" />
        </mxCell>
        <mxCell id="I46bo-mzMdyUpELrg9EA-63" value="&lt;span style=&quot;border-bottom: 1px dotted&quot;&gt;typeID&lt;br&gt;&lt;/span&gt;" style="ellipse;whiteSpace=wrap;html=1;align=center;" vertex="1" parent="I46bo-mzMdyUpELrg9EA-37">
          <mxGeometry x="280" y="360" width="100" height="40" as="geometry" />
        </mxCell>
        <mxCell id="I46bo-mzMdyUpELrg9EA-64" value="SHOPPINGLIST" style="whiteSpace=wrap;html=1;align=center;" vertex="1" parent="1">
          <mxGeometry x="1067" y="807.5" width="100" height="40" as="geometry" />
        </mxCell>
        <mxCell id="I46bo-mzMdyUpELrg9EA-65" value="AIRPORT" style="whiteSpace=wrap;html=1;align=center;" vertex="1" parent="1">
          <mxGeometry x="173" y="1112" width="100" height="40" as="geometry" />
        </mxCell>
        <mxCell id="I46bo-mzMdyUpELrg9EA-66" value="AirportID" style="ellipse;whiteSpace=wrap;html=1;align=center;fontStyle=4" vertex="1" parent="1">
          <mxGeometry x="115" y="1182" width="100" height="40" as="geometry" />
        </mxCell>
        <mxCell id="I46bo-mzMdyUpELrg9EA-67" value="GATE" style="whiteSpace=wrap;html=1;align=center;" vertex="1" parent="1">
          <mxGeometry x="1168" y="1150" width="100" height="40" as="geometry" />
        </mxCell>
        <mxCell id="I46bo-mzMdyUpELrg9EA-68" value="DUTY-FREE" style="whiteSpace=wrap;html=1;align=center;" vertex="1" parent="1">
          <mxGeometry x="560" y="1071" width="100" height="40" as="geometry" />
        </mxCell>
        <mxCell id="I46bo-mzMdyUpELrg9EA-69" value="&lt;u&gt;zoneID&lt;/u&gt;" style="ellipse;whiteSpace=wrap;html=1;align=center;" vertex="1" parent="1">
          <mxGeometry x="307.25" y="999" width="100" height="40" as="geometry" />
        </mxCell>
        <mxCell id="I46bo-mzMdyUpELrg9EA-70" value="Cord" style="ellipse;whiteSpace=wrap;html=1;align=center;" vertex="1" parent="1">
          <mxGeometry x="391.75" y="1190" width="100" height="40" as="geometry" />
        </mxCell>
        <mxCell id="I46bo-mzMdyUpELrg9EA-71" value="x" style="ellipse;whiteSpace=wrap;html=1;align=center;" vertex="1" parent="1">
          <mxGeometry x="375" y="1236" width="40" height="40" as="geometry" />
        </mxCell>
        <mxCell id="I46bo-mzMdyUpELrg9EA-72" value="y" style="ellipse;whiteSpace=wrap;html=1;align=center;" vertex="1" parent="1">
          <mxGeometry x="421.75" y="1250" width="40" height="40" as="geometry" />
        </mxCell>
        <mxCell id="I46bo-mzMdyUpELrg9EA-73" value="z" style="ellipse;whiteSpace=wrap;html=1;align=center;" vertex="1" parent="1">
          <mxGeometry x="470" y="1246" width="40" height="40" as="geometry" />
        </mxCell>
        <mxCell id="I46bo-mzMdyUpELrg9EA-74" value="longitude" style="ellipse;whiteSpace=wrap;html=1;align=center;" vertex="1" parent="1">
          <mxGeometry x="70" y="515" width="80" height="40" as="geometry" />
        </mxCell>
        <mxCell id="I46bo-mzMdyUpELrg9EA-75" value="latitude" style="ellipse;whiteSpace=wrap;html=1;align=center;" vertex="1" parent="1">
          <mxGeometry x="70" y="565" width="80" height="40" as="geometry" />
        </mxCell>
        <mxCell id="I46bo-mzMdyUpELrg9EA-76" value="altitude" style="ellipse;whiteSpace=wrap;html=1;align=center;" vertex="1" parent="1">
          <mxGeometry x="70" y="615" width="80" height="40" as="geometry" />
        </mxCell>
        <mxCell id="I46bo-mzMdyUpELrg9EA-77" value="GPS" style="whiteSpace=wrap;html=1;align=center;" vertex="1" parent="1">
          <mxGeometry x="257.5" y="564" width="100" height="40" as="geometry" />
        </mxCell>
        <mxCell id="I46bo-mzMdyUpELrg9EA-78" value="gpsID" style="ellipse;whiteSpace=wrap;html=1;align=center;" vertex="1" parent="1">
          <mxGeometry x="371.25" y="628" width="100" height="40" as="geometry" />
        </mxCell>
        <mxCell id="I46bo-mzMdyUpELrg9EA-79" value="Date" style="ellipse;whiteSpace=wrap;html=1;align=center;" vertex="1" parent="1">
          <mxGeometry x="233" y="474" width="100" height="40" as="geometry" />
        </mxCell>
        <mxCell id="I46bo-mzMdyUpELrg9EA-80" value="Time" style="ellipse;whiteSpace=wrap;html=1;align=center;" vertex="1" parent="1">
          <mxGeometry x="341.25" y="493" width="100" height="40" as="geometry" />
        </mxCell>
        <mxCell id="I46bo-mzMdyUpELrg9EA-81" value="index" style="ellipse;whiteSpace=wrap;html=1;align=center;fontStyle=4" vertex="1" parent="1">
          <mxGeometry x="1067" y="880" width="100" height="40" as="geometry" />
        </mxCell>
        <mxCell id="I46bo-mzMdyUpELrg9EA-82" value="TICKET" style="whiteSpace=wrap;html=1;align=center;" vertex="1" parent="1">
          <mxGeometry x="1703" y="557" width="100" height="40" as="geometry" />
        </mxCell>
        <mxCell id="I46bo-mzMdyUpELrg9EA-83" value="ticketID" style="ellipse;whiteSpace=wrap;html=1;align=center;fontStyle=4" vertex="1" parent="1">
          <mxGeometry x="1599.5" y="449.25" width="100" height="40" as="geometry" />
        </mxCell>
        <mxCell id="I46bo-mzMdyUpELrg9EA-84" value="boardingTime" style="ellipse;whiteSpace=wrap;html=1;align=center;fontStyle=0" vertex="1" parent="1">
          <mxGeometry x="1720" y="448.75" width="100" height="40" as="geometry" />
        </mxCell>
        <mxCell id="I46bo-mzMdyUpELrg9EA-85" value="gateNM" style="ellipse;whiteSpace=wrap;html=1;align=center;fontStyle=0" vertex="1" parent="1">
          <mxGeometry x="1585.75" y="533" width="100" height="40" as="geometry" />
        </mxCell>
        <mxCell id="I46bo-mzMdyUpELrg9EA-86" value="name" style="ellipse;whiteSpace=wrap;html=1;align=center;" vertex="1" parent="1">
          <mxGeometry x="415" y="1039" width="100" height="40" as="geometry" />
        </mxCell>
        <mxCell id="I46bo-mzMdyUpELrg9EA-87" value="brandID" style="ellipse;whiteSpace=wrap;html=1;align=center;fontStyle=4" vertex="1" parent="1">
          <mxGeometry x="500" y="967" width="100" height="40" as="geometry" />
        </mxCell>
        <mxCell id="I46bo-mzMdyUpELrg9EA-88" value="&lt;u&gt;gateNUM&lt;/u&gt;" style="ellipse;whiteSpace=wrap;html=1;align=center;" vertex="1" parent="1">
          <mxGeometry x="1172" y="1210" width="100" height="40" as="geometry" />
        </mxCell>
        <mxCell id="I46bo-mzMdyUpELrg9EA-89" value="1..1" style="text;html=1;strokeColor=none;fillColor=none;align=center;verticalAlign=middle;whiteSpace=wrap;rounded=0;spacing=1;" vertex="1" parent="1">
          <mxGeometry x="357.5" y="564" width="40" height="20" as="geometry" />
        </mxCell>
        <mxCell id="I46bo-mzMdyUpELrg9EA-90" value="" style="endArrow=none;html=1;entryX=0.6;entryY=0.975;entryDx=0;entryDy=0;entryPerimeter=0;" edge="1" parent="1" source="I46bo-mzMdyUpELrg9EA-92" target="I46bo-mzMdyUpELrg9EA-77">
          <mxGeometry width="50" height="50" relative="1" as="geometry">
            <mxPoint x="380" y="780" as="sourcePoint" />
            <mxPoint x="430" y="730" as="targetPoint" />
          </mxGeometry>
        </mxCell>
        <mxCell id="I46bo-mzMdyUpELrg9EA-91" value="" style="endArrow=none;html=1;rounded=0;" edge="1" parent="1" source="I46bo-mzMdyUpELrg9EA-77" target="I46bo-mzMdyUpELrg9EA-47">
          <mxGeometry relative="1" as="geometry">
            <mxPoint x="300" y="570.8887652947719" as="sourcePoint" />
            <mxPoint x="649.5" y="570.1112347052281" as="targetPoint" />
          </mxGeometry>
        </mxCell>
        <mxCell id="I46bo-mzMdyUpELrg9EA-92" value="has" style="shape=rhombus;perimeter=rhombusPerimeter;whiteSpace=wrap;html=1;align=center;" vertex="1" parent="1">
          <mxGeometry x="80" y="774" width="120" height="60" as="geometry" />
        </mxCell>
        <mxCell id="I46bo-mzMdyUpELrg9EA-93" value="" style="endArrow=none;html=1;entryX=0.6;entryY=0.975;entryDx=0;entryDy=0;entryPerimeter=0;" edge="1" parent="1" source="I46bo-mzMdyUpELrg9EA-65" target="I46bo-mzMdyUpELrg9EA-92">
          <mxGeometry width="50" height="50" relative="1" as="geometry">
            <mxPoint x="218.16467065868267" y="904" as="sourcePoint" />
            <mxPoint x="260" y="590" as="targetPoint" />
          </mxGeometry>
        </mxCell>
        <mxCell id="I46bo-mzMdyUpELrg9EA-94" value="1..1" style="text;html=1;strokeColor=none;fillColor=none;align=center;verticalAlign=middle;whiteSpace=wrap;rounded=0;spacing=1;" vertex="1" parent="1">
          <mxGeometry x="257.5" y="604" width="40" height="20" as="geometry" />
        </mxCell>
        <mxCell id="I46bo-mzMdyUpELrg9EA-95" value="1..1" style="text;html=1;strokeColor=none;fillColor=none;align=center;verticalAlign=middle;whiteSpace=wrap;rounded=0;spacing=1;" vertex="1" parent="1">
          <mxGeometry x="187.5" y="1089" width="40" height="20" as="geometry" />
        </mxCell>
        <mxCell id="I46bo-mzMdyUpELrg9EA-96" value="GPSCord" style="ellipse;whiteSpace=wrap;html=1;align=center;" vertex="1" parent="1">
          <mxGeometry x="165.5" y="564" width="80" height="40" as="geometry" />
        </mxCell>
        <mxCell id="I46bo-mzMdyUpELrg9EA-97" value="" style="endArrow=none;html=1;exitX=1;exitY=1;exitDx=0;exitDy=0;" edge="1" parent="1" source="I46bo-mzMdyUpELrg9EA-74" target="I46bo-mzMdyUpELrg9EA-96">
          <mxGeometry width="50" height="50" relative="1" as="geometry">
            <mxPoint x="340" y="670" as="sourcePoint" />
            <mxPoint x="390" y="620" as="targetPoint" />
          </mxGeometry>
        </mxCell>
        <mxCell id="I46bo-mzMdyUpELrg9EA-98" value="" style="endArrow=none;html=1;" edge="1" parent="1" source="I46bo-mzMdyUpELrg9EA-75" target="I46bo-mzMdyUpELrg9EA-96">
          <mxGeometry width="50" height="50" relative="1" as="geometry">
            <mxPoint x="340" y="670" as="sourcePoint" />
            <mxPoint x="390" y="620" as="targetPoint" />
          </mxGeometry>
        </mxCell>
        <mxCell id="I46bo-mzMdyUpELrg9EA-99" value="" style="endArrow=none;html=1;" edge="1" parent="1" source="I46bo-mzMdyUpELrg9EA-76" target="I46bo-mzMdyUpELrg9EA-96">
          <mxGeometry width="50" height="50" relative="1" as="geometry">
            <mxPoint x="340" y="670" as="sourcePoint" />
            <mxPoint x="390" y="620" as="targetPoint" />
          </mxGeometry>
        </mxCell>
        <mxCell id="I46bo-mzMdyUpELrg9EA-100" value="" style="endArrow=none;html=1;entryX=0;entryY=0.5;entryDx=0;entryDy=0;" edge="1" parent="1" source="I46bo-mzMdyUpELrg9EA-96" target="I46bo-mzMdyUpELrg9EA-77">
          <mxGeometry width="50" height="50" relative="1" as="geometry">
            <mxPoint x="340" y="670" as="sourcePoint" />
            <mxPoint x="390" y="620" as="targetPoint" />
          </mxGeometry>
        </mxCell>
        <mxCell id="I46bo-mzMdyUpELrg9EA-101" value="" style="endArrow=none;html=1;" edge="1" parent="1" source="I46bo-mzMdyUpELrg9EA-79" target="I46bo-mzMdyUpELrg9EA-77">
          <mxGeometry width="50" height="50" relative="1" as="geometry">
            <mxPoint x="148.28427124745963" y="559.1421356237297" as="sourcePoint" />
            <mxPoint x="187.46273892713418" y="579.7354285769634" as="targetPoint" />
          </mxGeometry>
        </mxCell>
        <mxCell id="I46bo-mzMdyUpELrg9EA-102" value="" style="endArrow=none;html=1;" edge="1" parent="1" source="I46bo-mzMdyUpELrg9EA-80" target="I46bo-mzMdyUpELrg9EA-77">
          <mxGeometry width="50" height="50" relative="1" as="geometry">
            <mxPoint x="298.39209789953657" y="523.8833610045413" as="sourcePoint" />
            <mxPoint x="312.05555555555566" y="574" as="targetPoint" />
          </mxGeometry>
        </mxCell>
        <mxCell id="I46bo-mzMdyUpELrg9EA-103" value="o" style="ellipse;whiteSpace=wrap;html=1;align=center;" vertex="1" parent="1">
          <mxGeometry x="550" y="1199" width="40" height="40" as="geometry" />
        </mxCell>
        <mxCell id="I46bo-mzMdyUpELrg9EA-104" value="" style="endArrow=none;html=1;rounded=0;entryX=0;entryY=0.5;entryDx=0;entryDy=0;" edge="1" parent="1" source="I46bo-mzMdyUpELrg9EA-120" target="I46bo-mzMdyUpELrg9EA-103">
          <mxGeometry relative="1" as="geometry">
            <mxPoint x="463.75" y="1150" as="sourcePoint" />
            <mxPoint x="555" y="1139" as="targetPoint" />
          </mxGeometry>
        </mxCell>
        <mxCell id="I46bo-mzMdyUpELrg9EA-105" value="" style="endArrow=none;html=1;rounded=0;exitX=1;exitY=1;exitDx=0;exitDy=0;" edge="1" parent="1" source="I46bo-mzMdyUpELrg9EA-103" target="I46bo-mzMdyUpELrg9EA-67">
          <mxGeometry relative="1" as="geometry">
            <mxPoint x="410" y="1070" as="sourcePoint" />
            <mxPoint x="570" y="1070" as="targetPoint" />
          </mxGeometry>
        </mxCell>
        <mxCell id="I46bo-mzMdyUpELrg9EA-106" value="" style="endArrow=none;html=1;rounded=0;" edge="1" parent="1" source="I46bo-mzMdyUpELrg9EA-103" target="I46bo-mzMdyUpELrg9EA-68">
          <mxGeometry relative="1" as="geometry">
            <mxPoint x="572.0452952104492" y="1199.1048556801775" as="sourcePoint" />
            <mxPoint x="574.8483495705507" y="1173.425514036826" as="targetPoint" />
          </mxGeometry>
        </mxCell>
        <mxCell id="I46bo-mzMdyUpELrg9EA-107" value="p" style="text;html=1;strokeColor=none;fillColor=none;align=center;verticalAlign=middle;whiteSpace=wrap;rounded=0;spacing=1;" vertex="1" parent="1">
          <mxGeometry x="547.5" y="1246" width="40" height="20" as="geometry" />
        </mxCell>
        <mxCell id="I46bo-mzMdyUpELrg9EA-108" value="" style="endArrow=none;html=1;rounded=0;" edge="1" parent="1" source="I46bo-mzMdyUpELrg9EA-71" target="I46bo-mzMdyUpELrg9EA-70">
          <mxGeometry relative="1" as="geometry">
            <mxPoint x="345" y="1129" as="sourcePoint" />
            <mxPoint x="425" y="1219" as="targetPoint" />
          </mxGeometry>
        </mxCell>
        <mxCell id="I46bo-mzMdyUpELrg9EA-109" value="" style="endArrow=none;html=1;rounded=0;" edge="1" parent="1" source="I46bo-mzMdyUpELrg9EA-72" target="I46bo-mzMdyUpELrg9EA-70">
          <mxGeometry relative="1" as="geometry">
            <mxPoint x="419.1421356237265" y="1251.8578643762735" as="sourcePoint" />
            <mxPoint x="433.1804661822989" y="1238.569533817701" as="targetPoint" />
          </mxGeometry>
        </mxCell>
        <mxCell id="I46bo-mzMdyUpELrg9EA-110" value="" style="endArrow=none;html=1;rounded=0;entryX=1;entryY=1;entryDx=0;entryDy=0;" edge="1" parent="1" source="I46bo-mzMdyUpELrg9EA-73" target="I46bo-mzMdyUpELrg9EA-70">
          <mxGeometry relative="1" as="geometry">
            <mxPoint x="429.1421356237265" y="1261.8578643762735" as="sourcePoint" />
            <mxPoint x="443.1804661822989" y="1248.569533817701" as="targetPoint" />
          </mxGeometry>
        </mxCell>
        <mxCell id="I46bo-mzMdyUpELrg9EA-111" value="" style="endArrow=none;html=1;rounded=0;" edge="1" parent="1" source="I46bo-mzMdyUpELrg9EA-70" target="I46bo-mzMdyUpELrg9EA-120">
          <mxGeometry relative="1" as="geometry">
            <mxPoint x="439.1421356237265" y="1271.8578643762735" as="sourcePoint" />
            <mxPoint x="439.5" y="1150" as="targetPoint" />
          </mxGeometry>
        </mxCell>
        <mxCell id="I46bo-mzMdyUpELrg9EA-112" value="" style="endArrow=none;html=1;rounded=0;" edge="1" parent="1" source="I46bo-mzMdyUpELrg9EA-120" target="I46bo-mzMdyUpELrg9EA-86">
          <mxGeometry relative="1" as="geometry">
            <mxPoint x="448.15400405635455" y="1110" as="sourcePoint" />
            <mxPoint x="463.1804661822989" y="1268.569533817701" as="targetPoint" />
          </mxGeometry>
        </mxCell>
        <mxCell id="I46bo-mzMdyUpELrg9EA-113" value="" style="endArrow=none;html=1;rounded=0;exitX=0.5;exitY=0;exitDx=0;exitDy=0;" edge="1" parent="1" source="I46bo-mzMdyUpELrg9EA-120" target="I46bo-mzMdyUpELrg9EA-69">
          <mxGeometry relative="1" as="geometry">
            <mxPoint x="429.52708997879904" y="1110" as="sourcePoint" />
            <mxPoint x="472.42500363106296" y="1089.6490994916894" as="targetPoint" />
          </mxGeometry>
        </mxCell>
        <mxCell id="I46bo-mzMdyUpELrg9EA-114" value="" style="endArrow=none;html=1;rounded=0;" edge="1" parent="1" source="I46bo-mzMdyUpELrg9EA-118" target="I46bo-mzMdyUpELrg9EA-120">
          <mxGeometry relative="1" as="geometry">
            <mxPoint x="300.5" y="1132.203187250996" as="sourcePoint" />
            <mxPoint x="388.75" y="1130" as="targetPoint" />
          </mxGeometry>
        </mxCell>
        <mxCell id="I46bo-mzMdyUpELrg9EA-115" value="1..1" style="text;html=1;strokeColor=none;fillColor=none;align=center;verticalAlign=middle;whiteSpace=wrap;rounded=0;spacing=1;" vertex="1" parent="1">
          <mxGeometry x="267.25" y="1103" width="40" height="20" as="geometry" />
        </mxCell>
        <mxCell id="I46bo-mzMdyUpELrg9EA-116" value="0..N" style="text;html=1;strokeColor=none;fillColor=none;align=center;verticalAlign=middle;whiteSpace=wrap;rounded=0;spacing=1;" vertex="1" parent="1">
          <mxGeometry x="351.5" y="1135" width="40" height="20" as="geometry" />
        </mxCell>
        <mxCell id="I46bo-mzMdyUpELrg9EA-117" value="" style="endArrow=none;html=1;rounded=0;" edge="1" parent="1" source="I46bo-mzMdyUpELrg9EA-66" target="I46bo-mzMdyUpELrg9EA-65">
          <mxGeometry relative="1" as="geometry">
            <mxPoint x="345" y="1099" as="sourcePoint" />
            <mxPoint x="505.00000000000006" y="1099" as="targetPoint" />
          </mxGeometry>
        </mxCell>
        <mxCell id="I46bo-mzMdyUpELrg9EA-118" value="seperate" style="shape=rhombus;double=1;perimeter=rhombusPerimeter;whiteSpace=wrap;html=1;align=center;" vertex="1" parent="1">
          <mxGeometry x="292.5" y="1100" width="74.5" height="60" as="geometry" />
        </mxCell>
        <mxCell id="I46bo-mzMdyUpELrg9EA-119" value="" style="endArrow=none;html=1;rounded=0;" edge="1" parent="1" source="I46bo-mzMdyUpELrg9EA-65" target="I46bo-mzMdyUpELrg9EA-118">
          <mxGeometry relative="1" as="geometry">
            <mxPoint x="300.5" y="1132.203187250996" as="sourcePoint" />
            <mxPoint x="388.75" y="1130.796812749004" as="targetPoint" />
          </mxGeometry>
        </mxCell>
        <mxCell id="I46bo-mzMdyUpELrg9EA-120" value="ZONE" style="shape=ext;margin=3;double=1;whiteSpace=wrap;html=1;align=center;" vertex="1" parent="1">
          <mxGeometry x="392.5" y="1108" width="100" height="40" as="geometry" />
        </mxCell>
        <mxCell id="I46bo-mzMdyUpELrg9EA-121" value="" style="endArrow=none;html=1;rounded=0;" edge="1" parent="1" source="I46bo-mzMdyUpELrg9EA-77" target="I46bo-mzMdyUpELrg9EA-78">
          <mxGeometry relative="1" as="geometry">
            <mxPoint x="370" y="800" as="sourcePoint" />
            <mxPoint x="530" y="800" as="targetPoint" />
          </mxGeometry>
        </mxCell>
        <mxCell id="I46bo-mzMdyUpELrg9EA-122" value="&lt;span style=&quot;border-bottom: 1px dotted&quot;&gt;&lt;span&gt;AirportID&lt;/span&gt;&lt;br&gt;&lt;/span&gt;" style="ellipse;whiteSpace=wrap;html=1;align=center;" vertex="1" parent="1">
          <mxGeometry x="301.5" y="1186" width="66.5" height="40" as="geometry" />
        </mxCell>
        <mxCell id="I46bo-mzMdyUpELrg9EA-123" value="" style="endArrow=none;html=1;rounded=0;" edge="1" parent="1" source="I46bo-mzMdyUpELrg9EA-122" target="I46bo-mzMdyUpELrg9EA-120">
          <mxGeometry relative="1" as="geometry">
            <mxPoint x="325" y="1119" as="sourcePoint" />
            <mxPoint x="485" y="1119" as="targetPoint" />
          </mxGeometry>
        </mxCell>
        <mxCell id="I46bo-mzMdyUpELrg9EA-124" value="" style="endArrow=none;html=1;rounded=0;fontColor=none;" edge="1" parent="1" source="I46bo-mzMdyUpELrg9EA-87" target="I46bo-mzMdyUpELrg9EA-68">
          <mxGeometry relative="1" as="geometry">
            <mxPoint x="575" y="1099" as="sourcePoint" />
            <mxPoint x="735" y="1099" as="targetPoint" />
          </mxGeometry>
        </mxCell>
        <mxCell id="I46bo-mzMdyUpELrg9EA-125" value="" style="endArrow=none;html=1;rounded=0;fontColor=none;" edge="1" parent="1" source="I46bo-mzMdyUpELrg9EA-67" target="I46bo-mzMdyUpELrg9EA-88">
          <mxGeometry relative="1" as="geometry">
            <mxPoint x="1282" y="1180" as="sourcePoint" />
            <mxPoint x="1292" y="1220" as="targetPoint" />
          </mxGeometry>
        </mxCell>
        <mxCell id="I46bo-mzMdyUpELrg9EA-126" value="" style="endArrow=none;html=1;rounded=0;" edge="1" parent="1" source="I46bo-mzMdyUpELrg9EA-59" target="I46bo-mzMdyUpELrg9EA-24">
          <mxGeometry relative="1" as="geometry">
            <mxPoint x="760.0023300970872" y="561.5711650485432" as="sourcePoint" />
            <mxPoint x="846.0799999999999" y="558.4329166666662" as="targetPoint" />
          </mxGeometry>
        </mxCell>
        <mxCell id="I46bo-mzMdyUpELrg9EA-127" value="" style="endArrow=none;html=1;rounded=0;fontColor=none;" edge="1" parent="1" source="I46bo-mzMdyUpELrg9EA-24" target="I46bo-mzMdyUpELrg9EA-128">
          <mxGeometry relative="1" as="geometry">
            <mxPoint x="740" y="480" as="sourcePoint" />
            <mxPoint x="1021.8403956788386" y="579.6859027042087" as="targetPoint" />
          </mxGeometry>
        </mxCell>
        <mxCell id="I46bo-mzMdyUpELrg9EA-128" value="&lt;span style=&quot;border-bottom: 1px dotted&quot;&gt;measureID&lt;br&gt;&lt;/span&gt;" style="ellipse;whiteSpace=wrap;html=1;align=center;" vertex="1" parent="1">
          <mxGeometry x="940" y="655" width="102" height="40" as="geometry" />
        </mxCell>
        <mxCell id="I46bo-mzMdyUpELrg9EA-129" value="" style="endArrow=none;html=1;rounded=0;fontColor=none;" edge="1" parent="1" source="I46bo-mzMdyUpELrg9EA-130" target="I46bo-mzMdyUpELrg9EA-7">
          <mxGeometry relative="1" as="geometry">
            <mxPoint x="1080" y="530" as="sourcePoint" />
            <mxPoint x="1240" y="530" as="targetPoint" />
          </mxGeometry>
        </mxCell>
        <mxCell id="I46bo-mzMdyUpELrg9EA-130" value="calculate" style="shape=rhombus;perimeter=rhombusPerimeter;whiteSpace=wrap;html=1;align=center;" vertex="1" parent="1">
          <mxGeometry x="1060" y="390" width="91.5" height="60" as="geometry" />
        </mxCell>
        <mxCell id="I46bo-mzMdyUpELrg9EA-131" value="" style="endArrow=none;html=1;rounded=0;fontColor=none;" edge="1" parent="1" source="I46bo-mzMdyUpELrg9EA-24" target="I46bo-mzMdyUpELrg9EA-130">
          <mxGeometry relative="1" as="geometry">
            <mxPoint x="999" y="550.2250803858519" as="sourcePoint" />
            <mxPoint x="1210" y="572.2749196141476" as="targetPoint" />
          </mxGeometry>
        </mxCell>
        <mxCell id="I46bo-mzMdyUpELrg9EA-132" value="" style="endArrow=none;html=1;rounded=0;fontColor=none;" edge="1" parent="1" source="I46bo-mzMdyUpELrg9EA-3" target="I46bo-mzMdyUpELrg9EA-4">
          <mxGeometry relative="1" as="geometry">
            <mxPoint x="1740" y="945" as="sourcePoint" />
            <mxPoint x="1900" y="945" as="targetPoint" />
          </mxGeometry>
        </mxCell>
        <mxCell id="I46bo-mzMdyUpELrg9EA-133" value="" style="endArrow=none;html=1;rounded=0;fontColor=none;" edge="1" parent="1" source="I46bo-mzMdyUpELrg9EA-3" target="I46bo-mzMdyUpELrg9EA-5">
          <mxGeometry relative="1" as="geometry">
            <mxPoint x="1740" y="945" as="sourcePoint" />
            <mxPoint x="1900" y="945" as="targetPoint" />
          </mxGeometry>
        </mxCell>
        <mxCell id="I46bo-mzMdyUpELrg9EA-134" value="" style="endArrow=none;html=1;rounded=0;fontColor=none;" edge="1" parent="1" source="I46bo-mzMdyUpELrg9EA-137" target="I46bo-mzMdyUpELrg9EA-7">
          <mxGeometry relative="1" as="geometry">
            <mxPoint x="1150" y="620" as="sourcePoint" />
            <mxPoint x="1310" y="620" as="targetPoint" />
          </mxGeometry>
        </mxCell>
        <mxCell id="I46bo-mzMdyUpELrg9EA-135" value="" style="endArrow=none;html=1;rounded=0;fontColor=none;exitX=0.5;exitY=1;exitDx=0;exitDy=0;" edge="1" parent="1" source="I46bo-mzMdyUpELrg9EA-139" target="I46bo-mzMdyUpELrg9EA-64">
          <mxGeometry relative="1" as="geometry">
            <mxPoint x="1280.9977833753148" y="604" as="sourcePoint" />
            <mxPoint x="1320.9222166246852" y="762.5" as="targetPoint" />
          </mxGeometry>
        </mxCell>
        <mxCell id="I46bo-mzMdyUpELrg9EA-136" value="&#xa;&#xa;&lt;span style=&quot;color: rgb(0, 0, 0); font-family: helvetica; font-size: 12px; font-style: normal; font-weight: 400; letter-spacing: normal; text-align: center; text-indent: 0px; text-transform: none; word-spacing: 0px; background-color: rgb(248, 249, 250); display: inline; float: none;&quot;&gt;1..1&lt;/span&gt;&#xa;&#xa;" style="text;html=1;strokeColor=none;fillColor=none;align=center;verticalAlign=middle;whiteSpace=wrap;rounded=0;spacing=1;" vertex="1" parent="1">
          <mxGeometry x="1720" y="899" width="40" height="20" as="geometry" />
        </mxCell>
        <mxCell id="I46bo-mzMdyUpELrg9EA-137" value="has" style="shape=rhombus;perimeter=rhombusPerimeter;whiteSpace=wrap;html=1;align=center;" vertex="1" parent="1">
          <mxGeometry x="1623" y="834" width="91.5" height="60" as="geometry" />
        </mxCell>
        <mxCell id="I46bo-mzMdyUpELrg9EA-138" value="" style="endArrow=none;html=1;rounded=0;fontColor=none;" edge="1" parent="1" source="I46bo-mzMdyUpELrg9EA-3" target="I46bo-mzMdyUpELrg9EA-137">
          <mxGeometry relative="1" as="geometry">
            <mxPoint x="1718.7663847780127" y="969" as="sourcePoint" />
            <mxPoint x="1701.7336152219873" y="1165.5" as="targetPoint" />
          </mxGeometry>
        </mxCell>
        <mxCell id="I46bo-mzMdyUpELrg9EA-139" value="has" style="shape=rhombus;perimeter=rhombusPerimeter;whiteSpace=wrap;html=1;align=center;" vertex="1" parent="1">
          <mxGeometry x="1180.5" y="668" width="91.5" height="60" as="geometry" />
        </mxCell>
        <mxCell id="I46bo-mzMdyUpELrg9EA-140" value="" style="endArrow=none;html=1;rounded=0;fontColor=none;exitX=0.5;exitY=1;exitDx=0;exitDy=0;" edge="1" parent="1" source="I46bo-mzMdyUpELrg9EA-7" target="I46bo-mzMdyUpELrg9EA-139">
          <mxGeometry relative="1" as="geometry">
            <mxPoint x="1290" y="586.5" as="sourcePoint" />
            <mxPoint x="1227.7263157894736" y="804" as="targetPoint" />
          </mxGeometry>
        </mxCell>
        <mxCell id="I46bo-mzMdyUpELrg9EA-141" value="&lt;span style=&quot;color: rgb(0 , 0 , 0) ; font-family: &amp;#34;helvetica&amp;#34; ; font-size: 12px ; font-style: normal ; font-weight: 400 ; letter-spacing: normal ; text-align: center ; text-indent: 0px ; text-transform: none ; word-spacing: 0px ; background-color: rgb(248 , 249 , 250) ; display: inline ; float: none&quot;&gt;1..N&lt;/span&gt;" style="text;html=1;strokeColor=none;fillColor=none;align=center;verticalAlign=middle;whiteSpace=wrap;rounded=0;spacing=1;" vertex="1" parent="1">
          <mxGeometry x="1102.25" y="781" width="40" height="20" as="geometry" />
        </mxCell>
        <mxCell id="I46bo-mzMdyUpELrg9EA-142" value="&lt;span style=&quot;border-bottom: 1px dotted&quot;&gt;deviceID&lt;br&gt;&lt;/span&gt;" style="ellipse;whiteSpace=wrap;html=1;align=center;labelBackgroundColor=none;fillColor=none;fontColor=none;" vertex="1" parent="1">
          <mxGeometry x="1850" y="969" width="100" height="40" as="geometry" />
        </mxCell>
        <mxCell id="I46bo-mzMdyUpELrg9EA-143" value="" style="endArrow=none;html=1;rounded=0;fontColor=none;" edge="1" parent="1" source="I46bo-mzMdyUpELrg9EA-3" target="I46bo-mzMdyUpELrg9EA-142">
          <mxGeometry relative="1" as="geometry">
            <mxPoint x="1590" y="1139" as="sourcePoint" />
            <mxPoint x="1750" y="1139" as="targetPoint" />
          </mxGeometry>
        </mxCell>
        <mxCell id="I46bo-mzMdyUpELrg9EA-144" value="&lt;span style=&quot;border-bottom: 1px dotted&quot;&gt;deviceID&lt;br&gt;&lt;/span&gt;" style="ellipse;whiteSpace=wrap;html=1;align=center;labelBackgroundColor=none;fillColor=none;fontColor=none;" vertex="1" parent="1">
          <mxGeometry x="1172" y="807.5" width="100" height="40" as="geometry" />
        </mxCell>
        <mxCell id="I46bo-mzMdyUpELrg9EA-145" value="" style="endArrow=none;html=1;rounded=0;fontColor=none;" edge="1" parent="1" source="I46bo-mzMdyUpELrg9EA-64" target="I46bo-mzMdyUpELrg9EA-144">
          <mxGeometry relative="1" as="geometry">
            <mxPoint x="1182.9957901661733" y="727.5" as="sourcePoint" />
            <mxPoint x="1105.93" y="917.5" as="targetPoint" />
          </mxGeometry>
        </mxCell>
        <mxCell id="I46bo-mzMdyUpELrg9EA-146" value="" style="endArrow=none;html=1;rounded=0;fontColor=none;" edge="1" parent="1" source="I46bo-mzMdyUpELrg9EA-64" target="I46bo-mzMdyUpELrg9EA-81">
          <mxGeometry relative="1" as="geometry">
            <mxPoint x="992" y="683.5" as="sourcePoint" />
            <mxPoint x="1152" y="683.5" as="targetPoint" />
          </mxGeometry>
        </mxCell>
        <mxCell id="I46bo-mzMdyUpELrg9EA-147" value="" style="endArrow=none;html=1;rounded=0;fontColor=none;" edge="1" parent="1" source="I46bo-mzMdyUpELrg9EA-82" target="I46bo-mzMdyUpELrg9EA-83">
          <mxGeometry relative="1" as="geometry">
            <mxPoint x="1712.5" y="236.25" as="sourcePoint" />
            <mxPoint x="1872.5" y="236.25" as="targetPoint" />
          </mxGeometry>
        </mxCell>
        <mxCell id="I46bo-mzMdyUpELrg9EA-148" value="" style="endArrow=none;html=1;rounded=0;fontColor=none;" edge="1" parent="1" source="I46bo-mzMdyUpELrg9EA-82" target="I46bo-mzMdyUpELrg9EA-84">
          <mxGeometry relative="1" as="geometry">
            <mxPoint x="1712.5" y="236.25" as="sourcePoint" />
            <mxPoint x="1872.5" y="236.25" as="targetPoint" />
          </mxGeometry>
        </mxCell>
        <mxCell id="I46bo-mzMdyUpELrg9EA-149" value="" style="endArrow=none;html=1;rounded=0;fontColor=none;" edge="1" parent="1" source="I46bo-mzMdyUpELrg9EA-82" target="I46bo-mzMdyUpELrg9EA-85">
          <mxGeometry relative="1" as="geometry">
            <mxPoint x="1712.5" y="236.25" as="sourcePoint" />
            <mxPoint x="1872.5" y="236.25" as="targetPoint" />
          </mxGeometry>
        </mxCell>
        <mxCell id="I46bo-mzMdyUpELrg9EA-150" value="&#xa;&#xa;&lt;span style=&quot;color: rgb(0, 0, 0); font-family: helvetica; font-size: 12px; font-style: normal; font-weight: 400; letter-spacing: normal; text-align: center; text-indent: 0px; text-transform: none; word-spacing: 0px; background-color: rgb(248, 249, 250); display: inline; float: none;&quot;&gt;1..1&lt;/span&gt;&#xa;&#xa;" style="text;html=1;strokeColor=none;fillColor=none;align=center;verticalAlign=middle;whiteSpace=wrap;rounded=0;spacing=1;" vertex="1" parent="1">
          <mxGeometry x="1770.5" y="906" width="40" height="20" as="geometry" />
        </mxCell>
        <mxCell id="I46bo-mzMdyUpELrg9EA-151" value="&lt;span style=&quot;color: rgb(0 , 0 , 0) ; font-family: &amp;#34;helvetica&amp;#34; ; font-size: 12px ; font-style: normal ; font-weight: 400 ; letter-spacing: normal ; text-align: center ; text-indent: 0px ; text-transform: none ; word-spacing: 0px ; background-color: rgb(248 , 249 , 250) ; display: inline ; float: none&quot;&gt;0..1&lt;/span&gt;" style="text;html=1;strokeColor=none;fillColor=none;align=center;verticalAlign=middle;whiteSpace=wrap;rounded=0;spacing=1;" vertex="1" parent="1">
          <mxGeometry x="1710" y="600.75" width="40" height="20" as="geometry" />
        </mxCell>
        <mxCell id="I46bo-mzMdyUpELrg9EA-152" value="" style="endArrow=none;html=1;rounded=0;fontColor=none;" edge="1" parent="1" source="I46bo-mzMdyUpELrg9EA-82" target="I46bo-mzMdyUpELrg9EA-153">
          <mxGeometry relative="1" as="geometry">
            <mxPoint x="1866.7857142857147" y="142.25" as="sourcePoint" />
            <mxPoint x="1889.0185037239803" y="111.50928039431346" as="targetPoint" />
          </mxGeometry>
        </mxCell>
        <mxCell id="I46bo-mzMdyUpELrg9EA-153" value="&lt;span style=&quot;border-bottom: 1px dotted&quot;&gt;UserID&lt;br&gt;&lt;/span&gt;" style="ellipse;whiteSpace=wrap;html=1;align=center;labelBackgroundColor=none;fillColor=none;fontColor=none;" vertex="1" parent="1">
          <mxGeometry x="1772.5" y="499.75" width="100" height="40" as="geometry" />
        </mxCell>
        <mxCell id="I46bo-mzMdyUpELrg9EA-154" value="has" style="shape=rhombus;double=1;perimeter=rhombusPerimeter;whiteSpace=wrap;html=1;align=center;labelBackgroundColor=none;fillColor=none;fontColor=none;" vertex="1" parent="1">
          <mxGeometry x="1659.5" y="668" width="120" height="60" as="geometry" />
        </mxCell>
        <mxCell id="I46bo-mzMdyUpELrg9EA-155" value="" style="endArrow=none;html=1;rounded=0;fontColor=none;entryX=0.5;entryY=1;entryDx=0;entryDy=0;" edge="1" parent="1" source="I46bo-mzMdyUpELrg9EA-3" target="I46bo-mzMdyUpELrg9EA-154">
          <mxGeometry relative="1" as="geometry">
            <mxPoint x="1473.5" y="465" as="sourcePoint" />
            <mxPoint x="1772.5" y="833" as="targetPoint" />
          </mxGeometry>
        </mxCell>
        <mxCell id="I46bo-mzMdyUpELrg9EA-156" value="" style="endArrow=none;html=1;rounded=0;fontColor=none;entryX=0.5;entryY=1;entryDx=0;entryDy=0;" edge="1" parent="1" source="I46bo-mzMdyUpELrg9EA-154" target="I46bo-mzMdyUpELrg9EA-82">
          <mxGeometry relative="1" as="geometry">
            <mxPoint x="1732.5" y="646.5" as="sourcePoint" />
            <mxPoint x="1732.5" y="493" as="targetPoint" />
          </mxGeometry>
        </mxCell>
        <mxCell id="I46bo-mzMdyUpELrg9EA-157" value="" style="endArrow=none;html=1;rounded=0;fontColor=none;" edge="1" parent="1" source="I46bo-mzMdyUpELrg9EA-7" target="I46bo-mzMdyUpELrg9EA-160">
          <mxGeometry relative="1" as="geometry">
            <mxPoint x="1300" y="690" as="sourcePoint" />
            <mxPoint x="1390" y="980" as="targetPoint" />
          </mxGeometry>
        </mxCell>
        <mxCell id="I46bo-mzMdyUpELrg9EA-158" value="" style="endArrow=none;html=1;rounded=0;fontColor=none;" edge="1" parent="1" source="I46bo-mzMdyUpELrg9EA-67" target="I46bo-mzMdyUpELrg9EA-160">
          <mxGeometry relative="1" as="geometry">
            <mxPoint x="1250" y="950" as="sourcePoint" />
            <mxPoint x="1360" y="1030" as="targetPoint" />
          </mxGeometry>
        </mxCell>
        <mxCell id="I46bo-mzMdyUpELrg9EA-159" value="" style="endArrow=none;html=1;rounded=0;fontColor=none;" edge="1" parent="1" source="I46bo-mzMdyUpELrg9EA-160" target="I46bo-mzMdyUpELrg9EA-64">
          <mxGeometry relative="1" as="geometry">
            <mxPoint x="1450" y="990" as="sourcePoint" />
            <mxPoint x="1410" y="950" as="targetPoint" />
          </mxGeometry>
        </mxCell>
        <mxCell id="I46bo-mzMdyUpELrg9EA-160" value="DESTINATION" style="shape=rhombus;perimeter=rhombusPerimeter;whiteSpace=wrap;html=1;align=center;labelBackgroundColor=none;fillColor=none;fontColor=none;" vertex="1" parent="1">
          <mxGeometry x="1310" y="1007" width="140" height="60" as="geometry" />
        </mxCell>
        <mxCell id="I46bo-mzMdyUpELrg9EA-161" value="&lt;span style=&quot;color: rgb(0 , 0 , 0) ; font-family: &amp;#34;helvetica&amp;#34; ; font-size: 12px ; font-style: normal ; font-weight: 400 ; letter-spacing: normal ; text-align: center ; text-indent: 0px ; text-transform: none ; word-spacing: 0px ; background-color: rgb(248 , 249 , 250) ; display: inline ; float: none&quot;&gt;1..N&lt;/span&gt;" style="text;html=1;strokeColor=none;fillColor=none;align=center;verticalAlign=middle;whiteSpace=wrap;rounded=0;spacing=1;" vertex="1" parent="1">
          <mxGeometry x="1599.5" y="834" width="40" height="20" as="geometry" />
        </mxCell>
        <mxCell id="I46bo-mzMdyUpELrg9EA-162" value="time" style="ellipse;whiteSpace=wrap;html=1;align=center;" vertex="1" parent="1">
          <mxGeometry x="1407" y="1100" width="100" height="40" as="geometry" />
        </mxCell>
        <mxCell id="I46bo-mzMdyUpELrg9EA-163" value="next_pos" style="ellipse;whiteSpace=wrap;html=1;align=center;" vertex="1" parent="1">
          <mxGeometry x="1437" y="967" width="100" height="40" as="geometry" />
        </mxCell>
        <mxCell id="I46bo-mzMdyUpELrg9EA-164" value="km" style="ellipse;whiteSpace=wrap;html=1;align=center;" vertex="1" parent="1">
          <mxGeometry x="1477" y="1031" width="100" height="40" as="geometry" />
        </mxCell>
        <mxCell id="I46bo-mzMdyUpELrg9EA-165" value="" style="endArrow=none;html=1;rounded=0;fontColor=none;" edge="1" parent="1" source="I46bo-mzMdyUpELrg9EA-160" target="I46bo-mzMdyUpELrg9EA-163">
          <mxGeometry relative="1" as="geometry">
            <mxPoint x="1370" y="880" as="sourcePoint" />
            <mxPoint x="1530" y="880" as="targetPoint" />
          </mxGeometry>
        </mxCell>
        <mxCell id="I46bo-mzMdyUpELrg9EA-166" value="" style="endArrow=none;html=1;rounded=0;fontColor=none;" edge="1" parent="1" source="I46bo-mzMdyUpELrg9EA-160" target="I46bo-mzMdyUpELrg9EA-164">
          <mxGeometry relative="1" as="geometry">
            <mxPoint x="1370" y="880" as="sourcePoint" />
            <mxPoint x="1530" y="880" as="targetPoint" />
          </mxGeometry>
        </mxCell>
        <mxCell id="I46bo-mzMdyUpELrg9EA-167" value="" style="endArrow=none;html=1;rounded=0;fontColor=none;" edge="1" parent="1" source="I46bo-mzMdyUpELrg9EA-160" target="I46bo-mzMdyUpELrg9EA-162">
          <mxGeometry relative="1" as="geometry">
            <mxPoint x="1370" y="880" as="sourcePoint" />
            <mxPoint x="1530" y="880" as="targetPoint" />
          </mxGeometry>
        </mxCell>
        <mxCell id="I46bo-mzMdyUpELrg9EA-168" value="" style="endArrow=none;html=1;rounded=0;fontColor=none;" edge="1" parent="1" source="I46bo-mzMdyUpELrg9EA-170" target="I46bo-mzMdyUpELrg9EA-169">
          <mxGeometry relative="1" as="geometry">
            <mxPoint x="1400" y="1140" as="sourcePoint" />
            <mxPoint x="1642.8466073067275" y="1151.9727735472275" as="targetPoint" />
          </mxGeometry>
        </mxCell>
        <mxCell id="I46bo-mzMdyUpELrg9EA-169" value="ROUTE" style="whiteSpace=wrap;html=1;align=center;labelBackgroundColor=none;fillColor=none;fontColor=none;" vertex="1" parent="1">
          <mxGeometry x="1733" y="1210" width="100" height="40" as="geometry" />
        </mxCell>
        <mxCell id="I46bo-mzMdyUpELrg9EA-170" value="finding ways" style="shape=rhombus;perimeter=rhombusPerimeter;whiteSpace=wrap;html=1;align=center;labelBackgroundColor=none;fillColor=none;fontColor=none;" vertex="1" parent="1">
          <mxGeometry x="1630" y="1110" width="93" height="60" as="geometry" />
        </mxCell>
        <mxCell id="I46bo-mzMdyUpELrg9EA-171" value="" style="endArrow=none;html=1;rounded=0;fontColor=none;" edge="1" parent="1" source="I46bo-mzMdyUpELrg9EA-19" target="I46bo-mzMdyUpELrg9EA-170">
          <mxGeometry relative="1" as="geometry">
            <mxPoint x="1580" y="1078.1837606837607" as="sourcePoint" />
            <mxPoint x="1756.2571428571428" y="1210" as="targetPoint" />
          </mxGeometry>
        </mxCell>
        <mxCell id="I46bo-mzMdyUpELrg9EA-172" value="&lt;span style=&quot;color: rgb(0 , 0 , 0) ; font-family: &amp;#34;helvetica&amp;#34; ; font-size: 12px ; font-style: normal ; font-weight: 400 ; letter-spacing: normal ; text-align: center ; text-indent: 0px ; text-transform: none ; word-spacing: 0px ; background-color: rgb(248 , 249 , 250) ; display: inline ; float: none&quot;&gt;1..N&lt;/span&gt;" style="text;html=1;strokeColor=none;fillColor=none;align=center;verticalAlign=middle;whiteSpace=wrap;rounded=0;spacing=1;" vertex="1" parent="1">
          <mxGeometry x="1750" y="1190" width="40" height="20" as="geometry" />
        </mxCell>
        <mxCell id="I46bo-mzMdyUpELrg9EA-173" value="&lt;span style=&quot;color: rgb(0 , 0 , 0) ; font-family: &amp;#34;helvetica&amp;#34; ; font-size: 12px ; font-style: normal ; font-weight: 400 ; letter-spacing: normal ; text-align: center ; text-indent: 0px ; text-transform: none ; word-spacing: 0px ; background-color: rgb(248 , 249 , 250) ; display: inline ; float: none&quot;&gt;1..1&lt;/span&gt;" style="text;html=1;strokeColor=none;fillColor=none;align=center;verticalAlign=middle;whiteSpace=wrap;rounded=0;spacing=1;" vertex="1" parent="1">
          <mxGeometry x="1585.75" y="1051" width="40" height="20" as="geometry" />
        </mxCell>
        <mxCell id="I46bo-mzMdyUpELrg9EA-174" value="routeID" style="ellipse;whiteSpace=wrap;html=1;align=center;fontStyle=4;labelBackgroundColor=none;fillColor=none;fontColor=none;" vertex="1" parent="1">
          <mxGeometry x="1790" y="1140" width="100" height="40" as="geometry" />
        </mxCell>
        <mxCell id="I46bo-mzMdyUpELrg9EA-175" value="" style="endArrow=none;html=1;rounded=0;fontColor=none;exitX=0.75;exitY=0;exitDx=0;exitDy=0;entryX=0;entryY=1;entryDx=0;entryDy=0;" edge="1" parent="1" source="I46bo-mzMdyUpELrg9EA-169" target="I46bo-mzMdyUpELrg9EA-174">
          <mxGeometry relative="1" as="geometry">
            <mxPoint x="1842.5" y="1098.33" as="sourcePoint" />
            <mxPoint x="2002.5" y="1098.33" as="targetPoint" />
          </mxGeometry>
        </mxCell>
        <mxCell id="I46bo-mzMdyUpELrg9EA-176" value="PRODUCT" style="whiteSpace=wrap;html=1;align=center;" vertex="1" parent="1">
          <mxGeometry x="560" y="805.5" width="100" height="40" as="geometry" />
        </mxCell>
        <mxCell id="I46bo-mzMdyUpELrg9EA-177" value="name" style="ellipse;whiteSpace=wrap;html=1;align=center;" vertex="1" parent="1">
          <mxGeometry x="424" y="805.5" width="108.75" height="44" as="geometry" />
        </mxCell>
        <mxCell id="I46bo-mzMdyUpELrg9EA-178" value="color" style="ellipse;whiteSpace=wrap;html=1;align=center;" vertex="1" parent="1">
          <mxGeometry x="424" y="859" width="100" height="40" as="geometry" />
        </mxCell>
        <mxCell id="I46bo-mzMdyUpELrg9EA-179" value="PRODUCT_TYPE" style="whiteSpace=wrap;html=1;align=center;" vertex="1" parent="1">
          <mxGeometry x="840" y="840" width="120" height="40" as="geometry" />
        </mxCell>
        <mxCell id="I46bo-mzMdyUpELrg9EA-180" value="&lt;u&gt;typeID&lt;/u&gt;" style="ellipse;whiteSpace=wrap;html=1;align=center;" vertex="1" parent="1">
          <mxGeometry x="810" y="784" width="100" height="40" as="geometry" />
        </mxCell>
        <mxCell id="I46bo-mzMdyUpELrg9EA-181" value="name" style="ellipse;whiteSpace=wrap;html=1;align=center;" vertex="1" parent="1">
          <mxGeometry x="940" y="784" width="100" height="40" as="geometry" />
        </mxCell>
        <mxCell id="I46bo-mzMdyUpELrg9EA-182" value="" style="endArrow=none;html=1;" edge="1" parent="1" source="I46bo-mzMdyUpELrg9EA-183" target="I46bo-mzMdyUpELrg9EA-64">
          <mxGeometry width="50" height="50" relative="1" as="geometry">
            <mxPoint x="820" y="830" as="sourcePoint" />
            <mxPoint x="870" y="780" as="targetPoint" />
          </mxGeometry>
        </mxCell>
        <mxCell id="I46bo-mzMdyUpELrg9EA-183" value="search" style="rhombus;whiteSpace=wrap;html=1;" vertex="1" parent="1">
          <mxGeometry x="770" y="951" width="80" height="80" as="geometry" />
        </mxCell>
        <mxCell id="I46bo-mzMdyUpELrg9EA-184" value="" style="endArrow=none;html=1;" edge="1" parent="1" source="I46bo-mzMdyUpELrg9EA-68" target="I46bo-mzMdyUpELrg9EA-183">
          <mxGeometry width="50" height="50" relative="1" as="geometry">
            <mxPoint x="601" y="860.7756183745582" as="sourcePoint" />
            <mxPoint x="1067" y="830.7243816254418" as="targetPoint" />
          </mxGeometry>
        </mxCell>
        <mxCell id="I46bo-mzMdyUpELrg9EA-185" value="" style="endArrow=none;html=1;" edge="1" parent="1" source="I46bo-mzMdyUpELrg9EA-179" target="I46bo-mzMdyUpELrg9EA-180">
          <mxGeometry width="50" height="50" relative="1" as="geometry">
            <mxPoint x="1039" y="739" as="sourcePoint" />
            <mxPoint x="1089" y="689" as="targetPoint" />
          </mxGeometry>
        </mxCell>
        <mxCell id="I46bo-mzMdyUpELrg9EA-186" value="" style="endArrow=none;html=1;" edge="1" parent="1" source="I46bo-mzMdyUpELrg9EA-179" target="I46bo-mzMdyUpELrg9EA-181">
          <mxGeometry width="50" height="50" relative="1" as="geometry">
            <mxPoint x="1039" y="739" as="sourcePoint" />
            <mxPoint x="1089" y="689" as="targetPoint" />
          </mxGeometry>
        </mxCell>
        <mxCell id="I46bo-mzMdyUpELrg9EA-187" value="" style="endArrow=none;html=1;" edge="1" parent="1" source="I46bo-mzMdyUpELrg9EA-177" target="I46bo-mzMdyUpELrg9EA-176">
          <mxGeometry width="50" height="50" relative="1" as="geometry">
            <mxPoint x="520" y="742.5" as="sourcePoint" />
            <mxPoint x="570" y="692.5" as="targetPoint" />
          </mxGeometry>
        </mxCell>
        <mxCell id="I46bo-mzMdyUpELrg9EA-188" value="" style="endArrow=none;html=1;" edge="1" parent="1" source="I46bo-mzMdyUpELrg9EA-178" target="I46bo-mzMdyUpELrg9EA-176">
          <mxGeometry width="50" height="50" relative="1" as="geometry">
            <mxPoint x="360" y="672.5" as="sourcePoint" />
            <mxPoint x="410" y="622.5" as="targetPoint" />
          </mxGeometry>
        </mxCell>
        <mxCell id="I46bo-mzMdyUpELrg9EA-189" value="" style="endArrow=none;html=1;" edge="1" parent="1" source="I46bo-mzMdyUpELrg9EA-61" target="I46bo-mzMdyUpELrg9EA-176">
          <mxGeometry width="50" height="50" relative="1" as="geometry">
            <mxPoint x="360" y="672.5" as="sourcePoint" />
            <mxPoint x="410" y="622.5" as="targetPoint" />
          </mxGeometry>
        </mxCell>
        <mxCell id="I46bo-mzMdyUpELrg9EA-190" value="" style="endArrow=none;html=1;" edge="1" parent="1" source="I46bo-mzMdyUpELrg9EA-62" target="I46bo-mzMdyUpELrg9EA-176">
          <mxGeometry width="50" height="50" relative="1" as="geometry">
            <mxPoint x="360" y="672.5" as="sourcePoint" />
            <mxPoint x="410" y="622.5" as="targetPoint" />
          </mxGeometry>
        </mxCell>
        <mxCell id="I46bo-mzMdyUpELrg9EA-191" value="" style="endArrow=none;html=1;" edge="1" parent="1" source="I46bo-mzMdyUpELrg9EA-176" target="I46bo-mzMdyUpELrg9EA-63">
          <mxGeometry width="50" height="50" relative="1" as="geometry">
            <mxPoint x="830" y="860" as="sourcePoint" />
            <mxPoint x="880" y="810" as="targetPoint" />
          </mxGeometry>
        </mxCell>
        <mxCell id="I46bo-mzMdyUpELrg9EA-192" value="" style="endArrow=none;html=1;" edge="1" parent="1" source="I46bo-mzMdyUpELrg9EA-193" target="I46bo-mzMdyUpELrg9EA-179">
          <mxGeometry width="50" height="50" relative="1" as="geometry">
            <mxPoint x="830" y="860" as="sourcePoint" />
            <mxPoint x="880" y="810" as="targetPoint" />
          </mxGeometry>
        </mxCell>
        <mxCell id="I46bo-mzMdyUpELrg9EA-193" value="is" style="rhombus;whiteSpace=wrap;html=1;" vertex="1" parent="1">
          <mxGeometry x="730" y="819" width="80" height="80" as="geometry" />
        </mxCell>
        <mxCell id="I46bo-mzMdyUpELrg9EA-194" value="" style="endArrow=none;html=1;" edge="1" parent="1" source="I46bo-mzMdyUpELrg9EA-176" target="I46bo-mzMdyUpELrg9EA-193">
          <mxGeometry width="50" height="50" relative="1" as="geometry">
            <mxPoint x="694.2499999999998" y="860" as="sourcePoint" />
            <mxPoint x="840" y="860" as="targetPoint" />
          </mxGeometry>
        </mxCell>
        <mxCell id="I46bo-mzMdyUpELrg9EA-195" value="" style="endArrow=none;html=1;" edge="1" parent="1" source="I46bo-mzMdyUpELrg9EA-183" target="I46bo-mzMdyUpELrg9EA-176">
          <mxGeometry width="50" height="50" relative="1" as="geometry">
            <mxPoint x="700" y="1020" as="sourcePoint" />
            <mxPoint x="750" y="970" as="targetPoint" />
          </mxGeometry>
        </mxCell>
        <mxCell id="I46bo-mzMdyUpELrg9EA-196" value="" style="endArrow=none;html=1;" edge="1" parent="1" source="I46bo-mzMdyUpELrg9EA-203" target="I46bo-mzMdyUpELrg9EA-176">
          <mxGeometry width="50" height="50" relative="1" as="geometry">
            <mxPoint x="670" y="880" as="sourcePoint" />
            <mxPoint x="720" y="830" as="targetPoint" />
          </mxGeometry>
        </mxCell>
        <mxCell id="I46bo-mzMdyUpELrg9EA-197" value="&lt;span style=&quot;border-bottom: 1px dotted&quot;&gt;brandID&lt;br&gt;&lt;/span&gt;" style="ellipse;whiteSpace=wrap;html=1;align=center;" vertex="1" parent="1">
          <mxGeometry x="492.5" y="899" width="100" height="40" as="geometry" />
        </mxCell>
        <mxCell id="I46bo-mzMdyUpELrg9EA-198" value="" style="endArrow=none;html=1;" edge="1" parent="1" source="I46bo-mzMdyUpELrg9EA-197" target="I46bo-mzMdyUpELrg9EA-176">
          <mxGeometry width="50" height="50" relative="1" as="geometry">
            <mxPoint x="670" y="980" as="sourcePoint" />
            <mxPoint x="720" y="930" as="targetPoint" />
          </mxGeometry>
        </mxCell>
        <mxCell id="I46bo-mzMdyUpELrg9EA-199" value="1..M" style="text;html=1;strokeColor=none;fillColor=none;align=center;verticalAlign=middle;whiteSpace=wrap;rounded=0;spacing=1;" vertex="1" parent="1">
          <mxGeometry x="612.5" y="1051" width="40" height="20" as="geometry" />
        </mxCell>
        <mxCell id="I46bo-mzMdyUpELrg9EA-200" value="0..N" style="text;html=1;strokeColor=none;fillColor=none;align=center;verticalAlign=middle;whiteSpace=wrap;rounded=0;spacing=1;" vertex="1" parent="1">
          <mxGeometry x="587.5" y="854" width="40" height="20" as="geometry" />
        </mxCell>
        <mxCell id="I46bo-mzMdyUpELrg9EA-201" value="1..1" style="text;html=1;strokeColor=none;fillColor=none;align=center;verticalAlign=middle;whiteSpace=wrap;rounded=0;spacing=1;" vertex="1" parent="1">
          <mxGeometry x="800" y="869" width="40" height="20" as="geometry" />
        </mxCell>
        <mxCell id="I46bo-mzMdyUpELrg9EA-202" value="1..N" style="text;html=1;strokeColor=none;fillColor=none;align=center;verticalAlign=middle;whiteSpace=wrap;rounded=0;spacing=1;" vertex="1" parent="1">
          <mxGeometry x="660" y="814" width="40" height="20" as="geometry" />
        </mxCell>
        <mxCell id="I46bo-mzMdyUpELrg9EA-203" value="has" style="rhombus;whiteSpace=wrap;html=1;" vertex="1" parent="1">
          <mxGeometry x="600" y="889" width="80" height="80" as="geometry" />
        </mxCell>
        <mxCell id="I46bo-mzMdyUpELrg9EA-204" value="" style="endArrow=none;html=1;" edge="1" parent="1" source="I46bo-mzMdyUpELrg9EA-68" target="I46bo-mzMdyUpELrg9EA-203">
          <mxGeometry width="50" height="50" relative="1" as="geometry">
            <mxPoint x="610" y="1071" as="sourcePoint" />
            <mxPoint x="610" y="845.5" as="targetPoint" />
          </mxGeometry>
        </mxCell>
        <mxCell id="I46bo-mzMdyUpELrg9EA-205" value="0..N" style="text;html=1;strokeColor=none;fillColor=none;align=center;verticalAlign=middle;whiteSpace=wrap;rounded=0;spacing=1;" vertex="1" parent="1">
          <mxGeometry x="760" y="939" width="40" height="20" as="geometry" />
        </mxCell>
        <mxCell id="I46bo-mzMdyUpELrg9EA-206" value="0..N" style="text;html=1;strokeColor=none;fillColor=none;align=center;verticalAlign=middle;whiteSpace=wrap;rounded=0;spacing=1;" vertex="1" parent="1">
          <mxGeometry x="730" y="989" width="40" height="20" as="geometry" />
        </mxCell>
        <mxCell id="I46bo-mzMdyUpELrg9EA-207" value="0..N" style="text;html=1;strokeColor=none;fillColor=none;align=center;verticalAlign=middle;whiteSpace=wrap;rounded=0;spacing=1;" vertex="1" parent="1">
          <mxGeometry x="820" y="949" width="40" height="20" as="geometry" />
        </mxCell>
        <mxCell id="I46bo-mzMdyUpELrg9EA-208" value="" style="endArrow=none;html=1;" edge="1" parent="1" source="I46bo-mzMdyUpELrg9EA-68" target="I46bo-mzMdyUpELrg9EA-210">
          <mxGeometry width="50" height="50" relative="1" as="geometry">
            <mxPoint x="820" y="930" as="sourcePoint" />
            <mxPoint x="310" y="890" as="targetPoint" />
          </mxGeometry>
        </mxCell>
        <mxCell id="I46bo-mzMdyUpELrg9EA-209" value="" style="endArrow=none;html=1;" edge="1" parent="1" source="I46bo-mzMdyUpELrg9EA-176" target="I46bo-mzMdyUpELrg9EA-210">
          <mxGeometry width="50" height="50" relative="1" as="geometry">
            <mxPoint x="820" y="930" as="sourcePoint" />
            <mxPoint x="310" y="836" as="targetPoint" />
          </mxGeometry>
        </mxCell>
        <mxCell id="I46bo-mzMdyUpELrg9EA-210" value="SELL" style="rhombus;whiteSpace=wrap;html=1;" vertex="1" parent="1">
          <mxGeometry x="273.0000000000002" y="849.5" width="80" height="80" as="geometry" />
        </mxCell>
        <mxCell id="I46bo-mzMdyUpELrg9EA-211" value="SALES RATE" style="ellipse;whiteSpace=wrap;html=1;" vertex="1" parent="1">
          <mxGeometry x="251.13" y="778" width="112.75" height="52" as="geometry" />
        </mxCell>
        <mxCell id="I46bo-mzMdyUpELrg9EA-212" value="" style="endArrow=none;html=1;" edge="1" parent="1" source="I46bo-mzMdyUpELrg9EA-211" target="I46bo-mzMdyUpELrg9EA-210">
          <mxGeometry width="50" height="50" relative="1" as="geometry">
            <mxPoint x="820" y="930" as="sourcePoint" />
            <mxPoint x="870" y="880" as="targetPoint" />
          </mxGeometry>
        </mxCell>
      </root>
    </mxGraphModel>
  </diagram>
</mxfile>
